static pose
version=1
nRows=1
nColumns=234
inDegrees=no
endheader
time	RM1D_tx	RM1D_ty	RM1D_tz	RM5D_tx	RM5D_ty	RM5D_tz	RM2B_tx	RM2B_ty	RM2B_tz	LM1D_tx	LM1D_ty	LM1D_tz	LM5D_tx	LM5D_ty	LM5D_tz	LM2B_tx	LM2B_ty	LM2B_tz	RCAL_tx	RCAL_ty	RCAL_tz	LCAL_tx	LCAL_ty	LCAL_tz	RLMAL_tx	RLMAL_ty	RLMAL_tz	LLMAL_tx	LLMAL_ty	LLMAL_tz	RMMAL_tx	RMMAL_ty	RMMAL_tz	LMMAL_tx	LMMAL_ty	LMMAL_tz	RSTL_tx	RSTL_ty	RSTL_tz	LSTL_tx	LSTL_ty	LSTL_tz	RFLE_tx	RFLE_ty	RFLE_tz	RFME_tx	RFME_ty	RFME_tz	LFME_tx	LFME_ty	LFME_tz	LFLE_tx	LFLE_ty	LFLE_tz	RHFIB_tx	RHFIB_ty	RHFIB_tz	LHFIB_tx	LHFIB_ty	LHFIB_tz	RTTUB_tx	RTTUB_ty	RTTUB_tz	LTTUB_tx	LTTUB_ty	LTTUB_tz	RSSH_tx	RSSH_ty	RSSH_tz	LSSH_tx	LSSH_ty	LSSH_tz	RTL_tx	RTL_ty	RTL_tz	LTL_tx	LTL_ty	LTL_tz	RTAP_tx	RTAP_ty	RTAP_tz	RTAD_tx	RTAD_ty	RTAD_tz	LTAP_tx	LTAP_ty	LTAP_tz	LTAD_tx	LTAD_ty	LTAD_tz	RTPP_tx	RTPP_ty	RTPP_tz	RTPD_tx	RTPD_ty	RTPD_tz	LTPP_tx	LTPP_ty	LTPP_tz	LTPD_tx	LTPD_ty	LTPD_tz	RPSIS_tx	RPSIS_ty	RPSIS_tz	LPSIS_tx	LPSIS_ty	LPSIS_tz	RASIS_tx	RASIS_ty	RASIS_tz	LASIS_tx	LASIS_ty	LASIS_tz	T10_tx	T10_ty	T10_tz	T2_tx	T2_ty	T2_tz	IJ_tx	IJ_ty	IJ_tz	SA_tx	SA_ty	SA_tz	RACR_tx	RACR_ty	RACR_tz	LACR_tx	LACR_ty	LACR_tz	RHLE_tx	RHLE_ty	RHLE_tz	LHLE_tx	LHLE_ty	LHLE_tz	RUSP_tx	RUSP_ty	RUSP_tz	LUSP_tx	LUSP_ty	LUSP_tz	RCB_tx	RCB_ty	RCB_tz	LCB_tx	LCB_ty	LCB_tz	IN_tx	IN_ty	IN_tz	LHME_tx	LHME_ty	LHME_tz	RHME_tx	RHME_ty	RHME_tz	pelvis_tilt	pelvis_list	pelvis_rotation	pelvis_tx	pelvis_ty	pelvis_tz	hip_flexion_r	hip_adduction_r	hip_rotation_r	knee_angle_r	ankle_angle_r	subtalar_angle_r	mtp_angle_r	hip_flexion_l	hip_adduction_l	hip_rotation_l	knee_angle_l	ankle_angle_l	subtalar_angle_l	mtp_angle_l	lumbar_extension	lumbar_bending	lumbar_rotation	arm_flex_r	arm_add_r	arm_rot_r	elbow_flex_r	pro_sup_r	wrist_flex_r	wrist_dev_r	arm_flex_l	arm_add_l	arm_rot_l	elbow_flex_l	pro_sup_l	wrist_flex_l	wrist_dev_l	pelvis_tilt_u	pelvis_list_u	pelvis_rotation_u	pelvis_tx_u	pelvis_ty_u	pelvis_tz_u	hip_flexion_r_u	hip_adduction_r_u	hip_rotation_r_u	knee_angle_r_u	ankle_angle_r_u	subtalar_angle_r_u	mtp_angle_r_u	hip_flexion_l_u	hip_adduction_l_u	hip_rotation_l_u	knee_angle_l_u	ankle_angle_l_u	subtalar_angle_l_u	mtp_angle_l_u	lumbar_extension_u	lumbar_bending_u	lumbar_rotation_u	arm_flex_r_u	arm_add_r_u	arm_rot_r_u	elbow_flex_r_u	pro_sup_r_u	wrist_flex_r_u	wrist_dev_r_u	arm_flex_l_u	arm_add_l_u	arm_rot_l_u	elbow_flex_l_u	pro_sup_l_u	wrist_flex_l_u	wrist_dev_l_u
  0.00000000	 -0.09168076	  0.04785512	 -0.16477788	 -0.12640476	  0.03050227	 -0.08486876	 -0.13201261	  0.06075647	 -0.12574778	 -0.08452975	  0.04725537	 -0.34120706	 -0.12077563	  0.02723308	 -0.42594716	 -0.13113814	  0.06578569	 -0.37387451	 -0.29186116	  0.05312404	 -0.15118198	 -0.28703990	  0.04995031	 -0.36014202	 -0.23988424	  0.08013382	 -0.10254924	 -0.23768149	  0.07958824	 -0.40626137	 -0.22359143	  0.09748692	 -0.18978696	 -0.21440639	  0.08880263	 -0.32169675	 -0.23400265	  0.04496427	 -0.18408224	 -0.22828798	  0.04504753	 -0.32705651	 -0.16486692	  0.48854431	 -0.10439582	 -0.19418498	  0.45814945	 -0.21798145	 -0.21371925	  0.45875253	 -0.28101418	 -0.19355214	  0.48271276	 -0.39656265	 -0.18001292	  0.44242418	 -0.10058192	 -0.20649333	  0.43303686	 -0.40342155	 -0.15585627	  0.41455151	 -0.15205396	 -0.17474337	  0.41420116	 -0.35077727	 -0.16931300	  0.32553796	 -0.15434673	 -0.19136353	  0.18717914	 -0.35963643	 -0.15112784	  0.68449906	 -0.06810063	 -0.16624167	  0.69830802	 -0.43534643	 -0.04773302	  0.73721002	 -0.13913086	 -0.07639594	  0.60649059	 -0.14009392	 -0.06181608	  0.75851051	 -0.35762294	 -0.08571157	  0.64470108	 -0.34588961	 -0.26154563	  0.70931882	 -0.14704206	 -0.26424494	  0.61548829	 -0.15226804	 -0.27207222	  0.70680269	 -0.36098745	 -0.28269361	  0.61114682	 -0.35977624	 -0.24531520	  1.00682225	 -0.20857269	 -0.24686369	  1.00171257	 -0.28974084	 -0.05043300	  0.96365161	 -0.13122802	 -0.06295522	  0.95280706	 -0.36640447	 -0.25858125	  1.17157018	 -0.25325227	 -0.26457484	  1.41506627	 -0.25599665	 -0.12150931	  1.39850557	 -0.25261876	 -0.08597414	  1.34993590	 -0.25557531	 -0.21018441	  1.42112061	 -0.07531210	 -0.20373953	  1.42146829	 -0.43069949	 -0.23019376	  1.10578573	 -0.00457547	 -0.21376910	  1.10222780	 -0.48661229	 -0.19288773	  0.88897543	  0.10860939	 -0.16923478	  0.87995553	 -0.58531516	 -0.08513243	  1.56587406	 -0.19348614	 -0.08722004	  1.56559394	 -0.31292645	 -0.24138502	  1.47646325	 -0.25762522	 -0.18316373	  1.08966288	 -0.41747506	 -0.20089827	  1.09435653	 -0.07378294	 -0.08001822	 -0.06032097	  0.02897366	 -0.07494928	  0.94498752	 -0.24968180	  0.03591421	  0.05582454	  0.06037583	 -0.08611746	  0.17210680	 -0.20079942	  0.00000000	 -0.00584448	 -0.09705666	  0.09610360	  0.02117453	  0.13773138	 -0.14150547	  0.00000000	  0.07355731	  0.05024486	 -0.03907659	 -0.25663757	 -0.20276226	  0.00876585	  0.60166565	  0.60227750	  0.00000000	  0.00000000	 -0.22133405	 -0.15869684	  0.00386607	  0.60321700	  0.60227750	  0.00000000	  0.00000000	  0.00000000	  0.00000000	  0.00000000	  0.00000000	  0.00000000	  0.00000000	  0.00000000	  0.00000000	  0.00000000	  0.00000000	  0.00000000	  0.00000000	  0.00000000	  0.00000000	  0.00000000	  0.00000000	  0.00000000	  0.00000000	  0.00000000	  0.00000000	  0.00000000	  0.00000000	  0.00000000	  0.00000000	  0.00000000	  0.00000000	  0.00000000	  0.00000000	  0.00000000	  0.00000000	  0.00000000	  0.00000000	  0.00000000	  0.00000000	  0.00000000	  0.00000000	  0.00000000
